<svg xmlns="http://www.w3.org/2000/svg" viewBox="0 0 500 500"><g id="freepik--background-simple--inject-195"><path d="M290.18,289.53c24-40.37,83.52-47.38,111-86.38,26.45-37.61,27.54-91.22-18.3-115-44.39-23-100.93-9.69-133.69,24.56-20.3,21.21-31.28,31.89-63,35.49-24.55,2.78-48.85-.58-71.66,10.8-44.29,22.09-40.18,60.14-16.27,91,25.88,33.44,18.41,73.27,40.28,108.48,18.49,29.79,58.05,54.29,96.33,31.21C270.56,368.16,271.6,320.76,290.18,289.53Z" style="fill:#407BFF"></path><path d="M290.18,289.53c24-40.37,83.52-47.38,111-86.38,26.45-37.61,27.54-91.22-18.3-115-44.39-23-100.93-9.69-133.69,24.56-20.3,21.21-31.28,31.89-63,35.49-24.55,2.78-48.85-.58-71.66,10.8-44.29,22.09-40.18,60.14-16.27,91,25.88,33.44,18.41,73.27,40.28,108.48,18.49,29.79,58.05,54.29,96.33,31.21C270.56,368.16,271.6,320.76,290.18,289.53Z" style="fill:#fff;opacity:0.9"></path></g><g id="freepik--Shadow--inject-195"><ellipse id="freepik--path--inject-195" cx="250" cy="416.24" rx="193.89" ry="11.32" style="fill:#f5f5f5"></ellipse></g><g id="freepik--Plant--inject-195"><path d="M405.51,346.42c-.21,1.47,3.77,2.44,7,3-.26,2.67-2,5.37-4.49,7.89-3.09-1.74-7.49-4-8.3-3.48s3.62,3.53,6.44,5.25a57.06,57.06,0,0,1-6.39,4.84c-1.38-1.29-3-2.43-4-1.82s-.73,2.64-.24,4.42c-3.36,2-5.87,3.15-5.87,3.15a67.5,67.5,0,0,1-2.24-9.53c.17-.33.34-.67.49-1,.54-1.25,0-1.78-.88-2a32.82,32.82,0,0,1,0-6.86c3.8-.8,8.41-2.27,6.68-4.55-1-1.38-3-1.53-4.94-1.19a9.16,9.16,0,0,1,.94-1.28c6.92-7.61,11.74,0,11.74,0,4-3.34,9.66-2.44,10.88,2.8C410.08,345.47,405.77,344.61,405.51,346.42Z" style="fill:#407BFF"></path><path d="M405.51,346.42c-.21,1.47,3.77,2.44,7,3-.26,2.67-2,5.37-4.49,7.89-3.09-1.74-7.49-4-8.3-3.48s3.62,3.53,6.44,5.25a57.06,57.06,0,0,1-6.39,4.84c-1.38-1.29-3-2.43-4-1.82s-.73,2.64-.24,4.42c-3.36,2-5.87,3.15-5.87,3.15a67.5,67.5,0,0,1-2.24-9.53c.17-.33.34-.67.49-1,.54-1.25,0-1.78-.88-2a32.82,32.82,0,0,1,0-6.86c3.8-.8,8.41-2.27,6.68-4.55-1-1.38-3-1.53-4.94-1.19a9.16,9.16,0,0,1,.94-1.28c6.92-7.61,11.74,0,11.74,0,4-3.34,9.66-2.44,10.88,2.8C410.08,345.47,405.77,344.61,405.51,346.42Z" style="fill:#fff;isolation:isolate;opacity:0.30000000000000004"></path><path d="M396.88,402.41l1-.08c-.05-.52-4.1-51.53,7.35-56.34a3.88,3.88,0,0,1,3.47.09c4.14,2.15,6.12,11.08,6.14,11.17l1-.21c-.09-.39-2.11-9.48-6.66-11.85a4.88,4.88,0,0,0-4.32-.12C392.73,350.16,396.7,400.28,396.88,402.41Z" style="fill:#407BFF"></path><path d="M395.44,401.3c.2-2.29,4.87-56.26-3.87-62-2.09-1.38-4-1.67-5.54-.87-4.13,2.09-4.68,10.91-4.7,11.29l1,0c0-.08.53-8.62,4.15-10.45,1.24-.62,2.77-.35,4.55.81,8.24,5.41,3.46,60.52,3.41,61.08Z" style="fill:#407BFF"></path><path d="M394.12,405.67c.07-1.76,1.51-43.07-6.45-46.69a5.55,5.55,0,0,0-4.73,0c-5.46,2.4-8.83,12.58-9,13l.95.31c0-.1,3.37-10.18,8.42-12.4a4.56,4.56,0,0,1,3.92,0c6.1,2.77,6.3,34,5.86,45.74Z" style="fill:#407BFF"></path><path d="M396.15,403.78l1-.12c-1.4-12.29-4.08-45.06.3-49a1.72,1.72,0,0,1,1.79-.55c2.93,1.13,4.72,11.78,5.16,15.8l1-.11c-.17-1.54-1.77-15.08-5.8-16.62a2.64,2.64,0,0,0-2.82.74C391.11,359,395.94,402,396.15,403.78Z" style="fill:#407BFF"></path><polygon points="412.83 380.47 376.91 380.47 379.91 420.71 409.83 420.71 412.83 380.47" style="fill:#263238"></polygon><polygon points="401.92 380.47 400.92 420.71 379.91 420.71 376.91 380.47 401.92 380.47" style="fill:#fff;isolation:isolate;opacity:0.2"></polygon><path d="M407.94,365.7c.38,1,3.17.21,5.36-.57.75,1.73.58,4-.07,6.4-2.5,0-6,.08-6.31.7s3.44.94,5.77,1a40.53,40.53,0,0,1-2.28,5.17c-1.3-.32-2.68-.46-3.07.25s.46,1.87,1.37,2.8c-1.4,2.36-2.54,4-2.54,4a48.12,48.12,0,0,1-4.65-5.11c0-.27,0-.53,0-.81-.09-.95-.6-1.1-1.21-.9a23.36,23.36,0,0,1-2.39-4.22c2.07-1.79,4.41-4.28,2.56-5.1-1.11-.49-2.34.07-3.45,1a5.81,5.81,0,0,1,.14-1.11c1.65-7.07,7.24-4,7.24-4,1.33-3.44,5.12-4.82,7.67-2C410.44,363.54,407.48,364.49,407.94,365.7Z" style="fill:#407BFF"></path><path d="M407.94,365.7c.38,1,3.17.21,5.36-.57.75,1.73.58,4-.07,6.4-2.5,0-6,.08-6.31.7s3.44.94,5.77,1a40.53,40.53,0,0,1-2.28,5.17c-1.3-.32-2.68-.46-3.07.25s.46,1.87,1.37,2.8c-1.4,2.36-2.54,4-2.54,4a48.12,48.12,0,0,1-4.65-5.11c0-.27,0-.53,0-.81-.09-.95-.6-1.1-1.21-.9a23.36,23.36,0,0,1-2.39-4.22c2.07-1.79,4.41-4.28,2.56-5.1-1.11-.49-2.34.07-3.45,1a5.81,5.81,0,0,1,.14-1.11c1.65-7.07,7.24-4,7.24-4,1.33-3.44,5.12-4.82,7.67-2C410.44,363.54,407.48,364.49,407.94,365.7Z" style="fill:#fff;isolation:isolate;opacity:0.30000000000000004"></path><path d="M381.27,370.48a13.49,13.49,0,0,1,3.28.69,7.36,7.36,0,0,0,.48-2.38c.23-7.25-5-4.19-7.7-6.32a5.93,5.93,0,0,0-4.58-1.44,11,11,0,0,1,.62,1.24,1.14,1.14,0,0,1-.88,1.55,3.22,3.22,0,0,1-2-.24,2.75,2.75,0,0,1-.53-.36,10,10,0,0,0-1,2.42,13.52,13.52,0,0,0-.47,3.1,10.37,10.37,0,0,1,1.21.34,1.13,1.13,0,0,1,.45,1.73,5.3,5.3,0,0,1-1.49,1.05,16.9,16.9,0,0,0,.91,3.39c.12,0,.25,0,.37.06s.52.12.78.19a2.32,2.32,0,0,1,.44.16,1.13,1.13,0,0,1,.25,1.93,6,6,0,0,1-.54.33,7.93,7.93,0,0,0,2.87,2.89,28.6,28.6,0,0,0,3-1.61c-.22-.29-.43-.58-.63-.88a1.67,1.67,0,0,1-.31-1.14,1.55,1.55,0,0,1,1.72-1.33,1.58,1.58,0,0,1,1,.59c.24.36.5.7.76,1A18.88,18.88,0,0,0,383,373.9l-.11,0a11.74,11.74,0,0,0-2-.34,1.54,1.54,0,1,1,.4-3Z" style="fill:#407BFF"></path><path d="M381.27,370.48a13.49,13.49,0,0,1,3.28.69,7.36,7.36,0,0,0,.48-2.38c.23-7.25-5-4.19-7.7-6.32a5.93,5.93,0,0,0-4.58-1.44,11,11,0,0,1,.62,1.24,1.14,1.14,0,0,1-.88,1.55,3.22,3.22,0,0,1-2-.24,2.75,2.75,0,0,1-.53-.36,10,10,0,0,0-1,2.42,13.52,13.52,0,0,0-.47,3.1,10.37,10.37,0,0,1,1.21.34,1.13,1.13,0,0,1,.45,1.73,5.3,5.3,0,0,1-1.49,1.05,16.9,16.9,0,0,0,.91,3.39c.12,0,.25,0,.37.06s.52.12.78.19a2.32,2.32,0,0,1,.44.16,1.13,1.13,0,0,1,.25,1.93,6,6,0,0,1-.54.33,7.93,7.93,0,0,0,2.87,2.89,28.6,28.6,0,0,0,3-1.61c-.22-.29-.43-.58-.63-.88a1.67,1.67,0,0,1-.31-1.14,1.55,1.55,0,0,1,1.72-1.33,1.58,1.58,0,0,1,1,.59c.24.36.5.7.76,1A18.88,18.88,0,0,0,383,373.9l-.11,0a11.74,11.74,0,0,0-2-.34,1.54,1.54,0,1,1,.4-3Z" style="fill:#fff;isolation:isolate;opacity:0.5"></path><path d="M379.19,345.49a9.16,9.16,0,0,0-2-1.07A5.17,5.17,0,0,1,378,343c3.06-3.91,4.45,0,6.82.06a4,4,0,0,1,3,1.25,6.74,6.74,0,0,0-.87.38.79.79,0,0,0-.22,1.2,2.29,2.29,0,0,0,1.18.77,3.13,3.13,0,0,0,.43,0,6.76,6.76,0,0,1-.54,1.71,10,10,0,0,1-1.11,1.83,7.91,7.91,0,0,0-.79-.35.76.76,0,0,0-1,.7,3.29,3.29,0,0,0,.32,1.21,11.13,11.13,0,0,1-2,1.38L383,353c-.16-.09-.33-.16-.49-.24l-.3-.11a.8.8,0,0,0-.74.17.76.76,0,0,0-.24.74,3.31,3.31,0,0,0,.14.41,5.5,5.5,0,0,1-2.78.26,20.82,20.82,0,0,1-.89-2.19c.24-.06.48-.11.71-.18a1.19,1.19,0,0,0,.67-.47,1,1,0,0,0-.33-1.45,1,1,0,0,0-.79-.14c-.28.08-.57.14-.86.21a12.74,12.74,0,0,1-.36-3.5l.07,0a8.25,8.25,0,0,1,1.22.71,1.05,1.05,0,0,0,1.45-.32A1.08,1.08,0,0,0,379.19,345.49Z" style="fill:#407BFF"></path><path d="M379.19,345.49a9.16,9.16,0,0,0-2-1.07A5.17,5.17,0,0,1,378,343c3.06-3.91,4.45,0,6.82.06a4,4,0,0,1,3,1.25,6.74,6.74,0,0,0-.87.38.79.79,0,0,0-.22,1.2,2.29,2.29,0,0,0,1.18.77,3.13,3.13,0,0,0,.43,0,6.76,6.76,0,0,1-.54,1.71,10,10,0,0,1-1.11,1.83,7.91,7.91,0,0,0-.79-.35.76.76,0,0,0-1,.7,3.29,3.29,0,0,0,.32,1.21,11.13,11.13,0,0,1-2,1.38L383,353c-.16-.09-.33-.16-.49-.24l-.3-.11a.8.8,0,0,0-.74.17.76.76,0,0,0-.24.74,3.31,3.31,0,0,0,.14.41,5.5,5.5,0,0,1-2.78.26,20.82,20.82,0,0,1-.89-2.19c.24-.06.48-.11.71-.18a1.19,1.19,0,0,0,.67-.47,1,1,0,0,0-.33-1.45,1,1,0,0,0-.79-.14c-.28.08-.57.14-.86.21a12.74,12.74,0,0,1-.36-3.5l.07,0a8.25,8.25,0,0,1,1.22.71,1.05,1.05,0,0,0,1.45-.32A1.08,1.08,0,0,0,379.19,345.49Z" style="fill:#fff;isolation:isolate;opacity:0.30000000000000004"></path><path d="M408.46,352.75c.21,1.47-3.77,2.43-7,3,.26,2.67,2,5.36,4.49,7.88,3.09-1.74,7.49-4,8.3-3.47s-3.62,3.53-6.44,5.24a58,58,0,0,0,6.39,4.84c1.38-1.29,3-2.42,4-1.81s.73,2.64.24,4.42c3.36,2,5.87,3.15,5.87,3.15a67.5,67.5,0,0,0,2.24-9.53c-.17-.34-.34-.67-.49-1-.54-1.25,0-1.79.88-2a32.91,32.91,0,0,0,.05-6.87c-3.79-.79-8.41-2.27-6.68-4.55,1-1.37,2.95-1.53,4.94-1.18a8.61,8.61,0,0,0-.94-1.28c-6.91-7.62-11.74,0-11.74,0-4-3.35-9.66-2.44-10.88,2.79C403.89,351.79,408.21,350.93,408.46,352.75Z" style="fill:#407BFF"></path><path d="M408.46,352.75c.21,1.47-3.77,2.43-7,3,.26,2.67,2,5.36,4.49,7.88,3.09-1.74,7.49-4,8.3-3.47s-3.62,3.53-6.44,5.24a58,58,0,0,0,6.39,4.84c1.38-1.29,3-2.42,4-1.81s.73,2.64.24,4.42c3.36,2,5.87,3.15,5.87,3.15a67.5,67.5,0,0,0,2.24-9.53c-.17-.34-.34-.67-.49-1-.54-1.25,0-1.79.88-2a32.91,32.91,0,0,0,.05-6.87c-3.79-.79-8.41-2.27-6.68-4.55,1-1.37,2.95-1.53,4.94-1.18a8.61,8.61,0,0,0-.94-1.28c-6.91-7.62-11.74,0-11.74,0-4-3.35-9.66-2.44-10.88,2.79C403.89,351.79,408.21,350.93,408.46,352.75Z" style="fill:#fff;isolation:isolate;opacity:0.5"></path></g><g id="freepik--light-bulb--inject-195"><path d="M136,342.45a39.14,39.14,0,1,1,.52,69.46,10.57,10.57,0,0,0-9.74.07h0L110,380.09h0a10.59,10.59,0,0,0,5.54-8A39,39,0,0,1,136,342.45Z" style="fill:#407BFF"></path><path d="M136,342.45a39.14,39.14,0,1,1,.52,69.46,10.57,10.57,0,0,0-9.74.07h0L110,380.09h0a10.59,10.59,0,0,0,5.54-8A39,39,0,0,1,136,342.45Z" style="fill:#fff;opacity:0.5"></path><circle cx="153.95" cy="368.92" r="29.94" transform="translate(-229.86 480.68) rotate(-83.58)" style="fill:#fff;opacity:0.30000000000000004"></circle><path d="M122.65,403.24a.49.49,0,0,1-.44-.27.5.5,0,0,1,.22-.66c.93-.45,22-10.68,32.3-8.68l-3.25-6.29a.48.48,0,0,1,.08-.56l3.36-3.54-8.23,1.58a.48.48,0,0,1-.52-.25.47.47,0,0,1,.08-.57l5.89-5.84L144,379.73a.49.49,0,0,1-.44-.82l5.88-5.83-4.69.93a.48.48,0,0,1-.52-.25l-3.29-6.21c-1.06,2.91-5.69,10.32-25.82,20.95a.49.49,0,0,1-.46-.87c25.12-13.26,25.62-21.38,25.62-21.46a.5.5,0,0,1,.38-.46.48.48,0,0,1,.55.24l3.71,7,5.92-1.18a.49.49,0,0,1,.44.83l-5.89,5.84,8.14-1.57a.48.48,0,0,1,.44.82l-5.89,5.84,8.14-1.57a.49.49,0,0,1,.52.24.47.47,0,0,1-.07.57l-4.16,4.4,3.59,6.94a.5.5,0,0,1-.06.54.49.49,0,0,1-.52.15c-9.44-2.91-32.43,8.25-32.66,8.36A.41.41,0,0,1,122.65,403.24Z" style="fill:#407BFF"></path><path d="M89.8,414.25l-2.58-4.88a3.74,3.74,0,0,1,1.56-5.05h0l6.07,11.48h0A3.73,3.73,0,0,1,89.8,414.25Z" style="fill:#263238"></path><path d="M92.74,415.81l-5.15-9.75A7.47,7.47,0,0,1,90.71,396h0l12.13,23h0A7.47,7.47,0,0,1,92.74,415.81Z" style="fill:#407BFF"></path><path d="M92.74,415.81l-5.15-9.75A7.47,7.47,0,0,1,90.71,396h0l12.13,23h0A7.47,7.47,0,0,1,92.74,415.81Z" style="opacity:0.2"></path><path d="M129.21,411.06h0l-17.14-32.45h0l-1.47.77L90.11,394.07A3.75,3.75,0,0,0,89,398.86l10.49,19.85a3.73,3.73,0,0,0,4.59,1.77l23.69-8.64Z" style="fill:#263238"></path><path d="M127.61,412.54a1,1,0,0,1-.8-.42l-20.61-29.6a1,1,0,0,1,1.6-1.12L128.41,411a1,1,0,0,1-.8,1.54Z" style="fill:#407BFF"></path><path d="M123.2,414.47a1,1,0,0,1-.81-.42l-20-28.78a1,1,0,0,1,1.61-1.12l20,28.79a1,1,0,0,1-.25,1.36A.94.94,0,0,1,123.2,414.47Z" style="fill:#407BFF"></path><path d="M118.62,416.14a1,1,0,0,1-.8-.42L98.53,388a1,1,0,0,1,1.6-1.12l19.29,27.69a1,1,0,0,1-.8,1.54Z" style="fill:#407BFF"></path><path d="M114,417.82a1,1,0,0,1-.8-.42L94.69,390.76a1,1,0,1,1,1.6-1.11l18.53,26.63a1,1,0,0,1-.8,1.54Z" style="fill:#407BFF"></path><path d="M109.43,419.49a1,1,0,0,1-.81-.42L90.84,393.52a1,1,0,0,1,.25-1.36,1,1,0,0,1,1.36.25L110.23,418a1,1,0,0,1-.25,1.36A1,1,0,0,1,109.43,419.49Z" style="fill:#407BFF"></path><path d="M104.86,421.18a1,1,0,0,1-.81-.42l-16.29-23.4a1,1,0,0,1,1.61-1.12l16.29,23.4a1,1,0,0,1-.25,1.36A1,1,0,0,1,104.86,421.18Z" style="fill:#407BFF"></path></g><g id="freepik--lava-lamp--inject-195"><path d="M233,369.18a11,11,0,0,1,.06-8.47l15.59-36.77,4-9.5a11.36,11.36,0,0,0,.78-6.07l-21.78-149-4.46-30.59H197.85l-4.47,30.59L171.61,308.37a11.26,11.26,0,0,0,.78,6.07l4,9.5L192,360.71a11.05,11.05,0,0,1,.06,8.47l-20.92,51.53h82.76Z" style="fill:#263238"></path><path d="M229.35,360.71l12.78-36.77,3.3-9.5a13.81,13.81,0,0,0,.64-6.07l-17.85-149-3.58-29.94H200.42l-3.58,29.94L179,308.37a13.52,13.52,0,0,0,.64,6.07l3.3,9.5,12.77,36.77a13.21,13.21,0,0,1,0,8.47l-17.13,51.53h67.81L229.3,369.18A13.27,13.27,0,0,1,229.35,360.71Z" style="fill:#fff;opacity:0.2"></path><polygon points="222.67 130.05 220.98 130.05 231.51 308.33 220.81 363.79 229.83 418.17 238.52 418.17 223.82 363.79 238.52 308.33 222.67 130.05" style="fill:#fff;opacity:0.1"></polygon><path d="M252.68,314.44l-4,9.5H176.42l-4-9.5a11.36,11.36,0,0,1-.78-6.07l21.77-149h38.3l21.78,149.05A11.36,11.36,0,0,1,252.68,314.44Z" style="fill:#407BFF"></path><path d="M185.52,323.94s-8.94,2.29-9.48-9.5,10.46-36.88,20.58-36.08,11.4,6.08,13.17,13.86S222.15,312,229.67,309s19.45,4.19,14.09,14.9Z" style="opacity:0.2"></path><path d="M191.26,265.63c4.93-4.62,12.82,9.42,12.22,16.42s-4.75,10-9.19,12.52S184.85,271.64,191.26,265.63Z" style="fill:#407BFF"></path><path d="M191.26,265.63c4.93-4.62,12.82,9.42,12.22,16.42s-4.75,10-9.19,12.52S184.85,271.64,191.26,265.63Z" style="fill:#fff;opacity:0.2"></path><path d="M189.07,281.22c3.2-1.8,3.71,3.6,6.56,1.6s-1-13.63-4.16-14.62S189.07,281.22,189.07,281.22Z" style="opacity:0.1"></path><path d="M218.05,215.42c8.65-5.91,8.2,7.61,12.76,10.41s6.66,10.48,0,7.44-13.66,3.42-16.06-4.21S214,218.22,218.05,215.42Z" style="fill:#407BFF"></path><path d="M218.05,215.42c8.65-5.91,8.2,7.61,12.76,10.41s6.66,10.48,0,7.44-13.66,3.42-16.06-4.21S214,218.22,218.05,215.42Z" style="opacity:0.2"></path><path d="M219.75,217.22c3-4.12,7.41,5,6.41,6.19S217.37,220.48,219.75,217.22Z" style="fill:#fff;opacity:0.1"></path><path d="M224.69,159.32a3.75,3.75,0,0,1-2.37,2.82c-5,2.2-14.16,4.4-15.27,7.61s-7.71,9.21-9.31,1.4c-.86-4.21-2.11-8.25-1.84-11.83Z" style="fill:#407BFF"></path><path d="M241.59,304.32c-6.46,9.52-11.56,9.86-18.34,19.62H182.94s-3.83-6.2,2.18-13,10.41-2,23.63-6.61,15.72-14.61,7.66-26.23-10-21.44,4.4-20.13,5.16,7.72,1.95,16.76-1.88,17,5.87,16.17S248.8,293.71,241.59,304.32Z" style="fill:#407BFF"></path><path d="M206.55,192.19c10.51-7.29,23.11,5.61,19.36,17.62s-9.75,17.22-18.16,16.82-11.82,8.81-7.21,11.22,9,8.41,2,9.41S171.91,216.22,206.55,192.19Z" style="fill:#407BFF"></path><path d="M220.76,169c6.35.43,12.62,13.42,8.41,17.42s-12,.4-14.21-4.2S217.43,168.74,220.76,169Z" style="fill:#407BFF"></path><path d="M233.78,292.27c-4.32-.34-10.23.8-11.21,5.07-.6,2.63.6,5.87,2,8.08,4.19,6.88,17.06.29,16.71-6.68a6.56,6.56,0,0,0-5-6.09A14.3,14.3,0,0,0,233.78,292.27Z" style="fill:#fff;opacity:0.30000000000000004"></path><path d="M241.59,304.32c-6.46,9.52-11.56,9.86-18.34,19.62H182.94s-3.83-6.2,2.18-13,10.41-2,23.63-6.61,15.72-14.61,7.66-26.23-10-21.44,4.4-20.13,5.16,7.72,1.95,16.76-1.88,17,5.87,16.17S248.8,293.71,241.59,304.32Z" style="fill:#fff;opacity:0.30000000000000004"></path><path d="M215.36,259.27c-3.81.41-5.22,5.92-2.61,10s7,6.77,10.62,0S228.57,257.87,215.36,259.27Z" style="fill:#fff;opacity:0.30000000000000004"></path><path d="M218.66,301.72c1.05,1.27-1.29,4.61,0,8.82s-.3,7-8.91,2.6-22,1.4-22.23,7.41-8.84-4,1.41-11.22c5.1-3.6,16-1.21,19.41-2.65C213.86,304.32,217.16,299.92,218.66,301.72Z" style="fill:#fff;opacity:0.30000000000000004"></path><path d="M222.87,311.85c-1.33-2.42.58-3.22,3-2.62s4.27-.91,3.87,1.2S225.07,315.86,222.87,311.85Z" style="fill:#fff;opacity:0.30000000000000004"></path><path d="M201.49,315.14c1.86-1.33,5.46-.7,4.86,1.4S198.14,317.54,201.49,315.14Z" style="fill:#fff;opacity:0.30000000000000004"></path><path d="M206.55,192.19c10.51-7.29,23.11,5.61,19.36,17.62s-9.75,17.22-18.16,16.82-11.82,8.81-7.21,11.22,9,8.41,2,9.41S171.91,216.22,206.55,192.19Z" style="fill:#fff;opacity:0.30000000000000004"></path><path d="M211.42,191.06c4.87-1.66,10,3.2,10.68,9.34s-1.51,21.36-9.57,21.76-11.79-3.87-12.59-10.28-8,1.2-9.21,4.27S192.19,197.6,211.42,191.06Z" style="fill:#fff;opacity:0.30000000000000004"></path><path d="M199,237.78s-.26,3.2,1.87,4.81,2.14,3.2,1.61,3.2,4,1.12,2.13-2.67S200.34,239.52,199,237.78Z" style="fill:#fff;opacity:0.30000000000000004"></path><path d="M220.76,169c6.35.43,12.62,13.42,8.41,17.42s-12,.4-14.21-4.2S217.43,168.74,220.76,169Z" style="fill:#fff;opacity:0.2"></path><path d="M224.69,159.32a3.75,3.75,0,0,1-2.37,2.82c-5,2.2-14.16,4.4-15.27,7.61s-7.71,9.21-9.31,1.4c-.86-4.21-2.11-8.25-1.84-11.83Z" style="opacity:0.2"></path><path d="M199,166.16c1.65,0,.86,1.45,1.38,2.35.89,1.54,3.42.38,4.19-.74.58-.83.75-1.89,1.33-2.72a3.34,3.34,0,0,1,2.46-1.43,1.51,1.51,0,0,1,1.13.29,1.34,1.34,0,0,1,0,1.72,7.35,7.35,0,0,1-1.42,1.24,16.52,16.52,0,0,0-2.88,3.82c-1.28,1.9-4,3.83-5.59,1.22C199.25,171.37,197.32,166.16,199,166.16Z" style="fill:#fff;opacity:0.1"></path><path d="M220.31,175c.36-3.42.84-4.77,3.51-3.62s5,9,2.77,9.21S220,178.08,220.31,175Z" style="fill:#fff;opacity:0.1"></path><polygon points="226.07 161.55 243.33 309.04 240.55 320.44 229.21 320.44 231.93 306.13 223.04 161.55 226.07 161.55" style="fill:#fff;opacity:0.2"></polygon></g><g id="freepik--speech-bubble--inject-195"><path d="M268.51,140.72s.5,8.69,11.26,13.9c0,0-5.63-7-4.87-13.12Z" style="fill:#407BFF"></path><path d="M268.51,140.72s.5,8.69,11.26,13.9c0,0-5.63-7-4.87-13.12Z" style="fill:#fff;opacity:0.7000000000000001"></path><rect x="258.3" y="113.55" width="30.39" height="30.39" rx="2.55" transform="translate(17.7 -32.33) rotate(6.99)" style="fill:#407BFF"></rect><rect x="258.3" y="113.55" width="30.39" height="30.39" rx="2.55" transform="translate(17.7 -32.33) rotate(6.99)" style="fill:#fff;opacity:0.7000000000000001"></rect><path d="M266.13,123.22c2.06-2.88,5.52-1.47,7.18,1,2-2.2,5.61-3.11,7.24,0,2.76,5.29-4,9.52-7.17,11.14-.35.19-.65.35-.9.47l-.83-.59C268.75,133.21,262.65,128.06,266.13,123.22Z" style="fill:#407BFF"></path></g><g id="freepik--Character--inject-195"><path d="M326.26,208.85c.58,1.81,1.1,3.65,1.64,5.48s1.05,3.68,1.54,5.52q1.5,5.53,2.84,11.11l-.64-1.3,4.15,6.09c1.38,2,2.72,4.09,4.08,6.14s2.67,4.13,4,6.22,2.6,4.18,3.85,6.31l-3.62,2.69c-1.68-1.81-3.29-3.67-4.93-5.52s-3.21-3.73-4.79-5.61-3.16-3.77-4.7-5.68L325,234.57l-.34-.43-.3-.87q-1.87-5.42-3.61-10.88c-.59-1.81-1.14-3.64-1.69-5.47s-1.09-3.66-1.58-5.5Z" style="fill:#dc897c"></path><path d="M323.24,200.78c5,1.51,6.88,16,6.88,16L320.06,224s-6.25-10.09-5.52-17.73C314.91,202.45,318.3,199.31,323.24,200.78Z" style="fill:#407BFF"></path><path d="M323.24,200.78c5,1.51,6.88,16,6.88,16L320.06,224s-6.25-10.09-5.52-17.73C314.91,202.45,318.3,199.31,323.24,200.78Z" style="fill:#fff;opacity:0.5"></path><path d="M323.3,200.8c-8.07,25-10.2,29.95-10.7,42.35-6-.33-18.5-.89-30.71-1.56-.54-6.54-.88-12.07-1.08-16.74-.18-4.22-.24-7.73-.21-10.67.13-15.87,2.77-14.78,2.77-14.78a62.88,62.88,0,0,1,7.44-1.42l.43,0c2.05-.21,2.47-.22,5.17-.32,4.58.07,8.81.24,14,.77l1,.11c.93.11,1.85.24,2.74.37.59.09,1.19.19,1.75.3l1.92.37C321,200.17,323.3,200.8,323.3,200.8Z" style="fill:#407BFF"></path><path d="M323.3,200.8c-8.07,25-10.2,29.95-10.7,42.35-6-.33-18.5-.89-30.71-1.56-.54-6.54-.88-12.07-1.08-16.74-.18-4.22-.24-7.73-.21-10.67.13-15.87,2.77-14.78,2.77-14.78a62.88,62.88,0,0,1,7.44-1.42l.43,0c2.05-.21,2.47-.22,5.17-.32,4.58.07,8.81.24,14,.77l1,.11c.93.11,1.85.24,2.74.37.59.09,1.19.19,1.75.3l1.92.37C321,200.17,323.3,200.8,323.3,200.8Z" style="fill:#fff;opacity:0.5"></path><path d="M337.46,413.92l-5.24.68c-8.16-24.43-15.43-55-20.42-78.1-.78-3.62-1.51-7.05-2.17-10.25-.31-1.53-.61-3-.9-4.4-1.42-7-2.48-12.48-3.13-15.89-.47-2.49-.72-3.87-.72-3.87L323.83,300l.37,4.85,1.21,16,.15,1.83.79,10.57,1.37,18C337.07,375.68,337.46,413.92,337.46,413.92Z" style="fill:#e4897b"></path><path d="M294.27,411.6l-5.28-.27c-4-27.71-5.72-62.36-6.44-86.46-.11-3.73-.2-7.22-.27-10.39,0-.16,0-.31,0-.46-.13-6.28-.2-11.27-.23-14.43,0-2.48,0-3.83,0-3.83l19,1.25-.82,7.93-1.19,11.66-.24,2.28-.82,7.95-2.2,21.3C300.66,373.89,294.27,411.6,294.27,411.6Z" style="fill:#e4897b"></path><path d="M299.05,316.6l-16.77-2.12c0-.16,0-.31,0-.46-.13-6.28-.2-11.27-.23-14.43l18.2,5.35Z" style="isolation:isolate;opacity:0.2"></path><path d="M307.33,314.89l17.33-4-.46-6.09L305.6,306C306,308.13,306.6,311.17,307.33,314.89Z" style="isolation:isolate;opacity:0.2"></path><path d="M339.27,410.57c0-.66-8.14-.14-8.14-.14s-5,5.08-9.85,6.23-2.14,4,3.28,4H338C341.84,420.71,339.43,417.43,339.27,410.57Z" style="fill:#263238"></path><path d="M326.14,412.31a.77.77,0,0,1-.2-.86.86.86,0,0,1,.44-.55,3.26,3.26,0,0,1,1.82-.2c-.66-.35-1.24-.78-1.26-1.21s.16-.51.53-.68a1.21,1.21,0,0,1,1,0c1.1.46,1.79,2.35,1.81,2.43a.25.25,0,0,1,0,.17l0,0h0a.16.16,0,0,1-.08.06,10.21,10.21,0,0,1-3.36,1A1.12,1.12,0,0,1,326.14,412.31Zm.45-1a.45.45,0,0,0-.23.28c-.08.32,0,.41.05.43.39.32,1.87-.13,3.07-.64A5.3,5.3,0,0,0,326.59,411.27Zm1.06-2.07c-.11.05-.29.15-.29.27,0,.36,1.19,1,2.39,1.45a3.6,3.6,0,0,0-1.39-1.75,1,1,0,0,0-.33-.06A.88.88,0,0,0,327.65,409.2Z" style="fill:#407BFF"></path><path d="M295.79,410.57c0-.66-8.14-.14-8.14-.14s-5,5.08-9.85,6.23-2.14,4,3.28,4h13.43C298.36,420.71,296,417.43,295.79,410.57Z" style="fill:#263238"></path><path d="M282.66,412.31a.77.77,0,0,1-.2-.86.86.86,0,0,1,.44-.55,3.26,3.26,0,0,1,1.82-.2c-.66-.35-1.24-.78-1.26-1.21s.16-.51.53-.68a1.21,1.21,0,0,1,1.05,0c1.1.46,1.79,2.35,1.81,2.43a.25.25,0,0,1,0,.17l0,0h0a.16.16,0,0,1-.08.06,10.21,10.21,0,0,1-3.36,1A1.12,1.12,0,0,1,282.66,412.31Zm.45-1a.45.45,0,0,0-.23.28c-.08.32,0,.41.05.43.39.32,1.87-.13,3.07-.64A5.3,5.3,0,0,0,283.11,411.27Zm1.06-2.07c-.11.05-.29.15-.29.27,0,.36,1.19,1,2.39,1.45a3.6,3.6,0,0,0-1.39-1.75,1,1,0,0,0-.33-.06A.88.88,0,0,0,284.17,409.2Z" style="fill:#407BFF"></path><path d="M345.8,253.12l8.79,4.41-6.35,3.41s-4.83-1.37-4.46-5.15Z" style="fill:#e4897b"></path><polygon points="355.52 261.07 352.86 265.38 348.24 260.94 354.59 257.53 355.52 261.07" style="fill:#e4897b"></polygon><path d="M290.71,175.57c0,.61-.31,1.11-.71,1.13s-.73-.46-.74-1.06.31-1.11.71-1.13S290.7,175,290.71,175.57Z" style="fill:#263238"></path><path d="M290.15,174.53l-1.48-.35S289.44,175.28,290.15,174.53Z" style="fill:#263238"></path><path d="M290.2,176.18a16.67,16.67,0,0,1-2.12,4,2.64,2.64,0,0,0,2.19.31Z" style="fill:#de5753"></path><path d="M289.83,171.57a.32.32,0,0,0,.17,0,2.94,2.94,0,0,1,2.63.24.37.37,0,0,0,.5-.09.35.35,0,0,0-.08-.49,3.65,3.65,0,0,0-3.29-.33.36.36,0,0,0-.21.46A.35.35,0,0,0,289.83,171.57Z" style="fill:#263238"></path><path d="M308.36,183.71c-1.25,4.4-1.15,12,1.76,15.14,0,0,2.38,4.25-6,3.8-9.18-.5-9.84-4.78-9.84-4.78,5.12-.91,5.29-4.59,4.7-8.09Z" style="fill:#e4897b"></path><path d="M283.07,210.48c-3.75.42-7.46.72-11.23.92-1.88.09-3.76.18-5.67.21s-3.8.06-5.89-.07c-.54,0-1.06-.06-1.76-.16a9,9,0,0,1-1.11-.23l-.91-.27c-1.06-.36-2-.76-2.89-1.16-1.81-.8-3.49-1.68-5.17-2.57a111.12,111.12,0,0,1-9.7-5.87l2-4.06c3.54,1.11,7.07,2.32,10.53,3.5,1.73.59,3.46,1.18,5.14,1.7.83.25,1.65.47,2.37.65l.45.07c.22.05.11,0,.25,0h1c1.62-.06,3.45-.18,5.25-.33l5.46-.48c3.65-.33,7.34-.66,11-.94Z" style="fill:#dc897c"></path><path d="M241.63,199.28l-.37-8.49-7.33,1.86s-1,8.25,4.9,8.83Z" style="fill:#e4897b"></path><polygon points="239.23 187.41 232.94 187.49 233.93 192.65 241.26 190.79 239.23 187.41" style="fill:#e4897b"></polygon><path d="M311.15,173.06c-.36,7.45-.35,10.61-4.09,14.59-5.62,6-14.78,4.17-16.67-3.18-1.71-6.61-.84-17.69,6.47-21A10,10,0,0,1,311.15,173.06Z" style="fill:#e4897b"></path><path d="M294.4,178.33s2.47,6.82,7.55,9.54c2.08,1.12,7.83,1.33,9.74.32,5.69-3,10.08-16.5,9.4-20.35-1.09-6.11-8.67-9.09-12.44-8.43,0,0-12.82-2.37-15.79,1.93C284.51,173.43,294.4,178.33,294.4,178.33Z" style="fill:#263238"></path><path d="M296.85,177.16a6.79,6.79,0,0,1-1.9,3.6c-1.37,1.38-2.65.77-2.77-.71s.48-3.65,2.1-4.51S297.06,175.62,296.85,177.16Z" style="fill:#e4897b"></path><path d="M281.89,241.59l30.71,1.56s13.87,19.28,13.28,63.78l-21,2.92L303.3,298l-.15,12L280.4,309l1.12-33.32S280.83,252.61,281.89,241.59Z" style="fill:#263238"></path><path d="M287.76,242.47l.1,3.39-5.79-.31c-.27,0-.49-.17-.49-.33l-.06-2.74c0-.19.26-.34.55-.32Z"></path><polygon points="308.85 243.62 308.95 247.01 289.3 245.94 289.2 242.54 308.85 243.62"></polygon><path d="M314.35,247.31l-4-.22-.09-3.4,3,.17a.57.57,0,0,1,.48.25l1.16,2.79C315,247.12,314.7,247.32,314.35,247.31Z"></path><path d="M303.3,298a47.06,47.06,0,0,0,7.55-19.06s3.38,19.3-6.49,27.06Z" style="opacity:0.2"></path><polygon points="304.24 308.15 326.41 304.8 326.41 307.4 304.64 311.09 304.24 308.15" style="fill:#407BFF"></polygon><path d="M280,307.4c.46,0,23.31,1.12,23.31,1.12v2.57L280,309.93Z" style="fill:#407BFF"></path><path d="M287.86,211.22s-2.06,11.42-7.05,13.63c-.18-4.22-.24-7.73-.21-10.67A56.86,56.86,0,0,1,287.86,211.22Z" style="opacity:0.2"></path><path d="M314.48,163.92s4.88-8.88,13.72-5.17,1.05,10.08.66,19.63,6.72,6.25,6.72,6.25-1.32,3-4.35,2.24c0,0,3.69,3.43,6.73,1.32,0,0-.53,6.94-8.84,4.46s-10.55-17.62-10.81-20.8S314.48,163.92,314.48,163.92Z" style="fill:#263238"></path><path d="M308.65,160.5s-10.18-5.23-16.48,0a11.89,11.89,0,0,0-4.09,12.26s-.89-9,5.83-12.34,14.74,2.05,14.74,2.05Z" style="fill:#263238"></path><path d="M316,161.5a14,14,0,0,1,4.06-2.92A10.43,10.43,0,0,1,325,157.5a10,10,0,0,1,4.75,1.43,12,12,0,0,1,2,1.45,4.26,4.26,0,0,1,1.3,2.18,9.81,9.81,0,0,1-.57,4.88c-.49,1.55-1.07,3.05-1.56,4.59-1,3-1.64,6.33-.86,9.5-.86-3.15-.3-6.49.62-9.57.46-1.56,1-3.08,1.44-4.63a9.55,9.55,0,0,0,.45-4.65c-.36-1.52-1.79-2.44-3.14-3.21a9.58,9.58,0,0,0-4.47-1.22,11.48,11.48,0,0,0-8.17,3.91Z" style="fill:#263238"></path><path d="M290.81,198a18.29,18.29,0,0,1,3.71,4c1.9,2.69,6.88,9.26,15.6,6.83s9.41-8.92,9.41-8.92S304.32,196,290.81,198Z" style="fill:#e4897b"></path><path d="M286.69,198.65c-9.32,1.76-19.61,3.35-19.61,3.35l5.9,12.07s14.78,5.47,15.77-6.78C289.1,202.93,288.93,198.23,286.69,198.65Z" style="fill:#407BFF"></path><path d="M286.69,198.65c-9.32,1.76-19.61,3.35-19.61,3.35l5.9,12.07s14.78,5.47,15.77-6.78C289.1,202.93,288.93,198.23,286.69,198.65Z" style="fill:#fff;opacity:0.5"></path></g></svg>
